General
Complete name                    : Capote.mkv
Format                           : Matroska
File size                        : 1.93 GiB
Duration                         : 1h 49mn
Overall bit rate                 : 2 515 Kbps


Video
ID                               : 1
Format/Info                      : Advanced Video Codec
Codec ID                         : V_MPEG4/ISO/AVC
Duration                         : 1h 49mn
Bit rate                         : 1 996 Kbps
Nominal bit rate                 : 1 972 Kbps
Width                            : 720 pixels
Height                           : 434 pixels
Display aspect ratio             : 2.35
Frame rate                       : 25.000 fps
Resolution                       : 24 bits
Colorimetry                      : 4:2:0
Scan type                        : Progressive
Bits/(Pixel*Frame)               : 0.255
Stream size                      : 1.53 GiB (79%)
Writing library                  : x264 core 79

Audio
ID                               : 2
Format                           : AC-3
Format/Info                      : Audio Coding 3
Codec ID                         : A_AC3
Duration                         : 1h 49mn
Bit rate mode                    : Constant
Bit rate                         : 448 Kbps
Channel(s)                       : 6 channels
Channel positions                : Front: L C R, Surround: L R, LFE
Sampling rate                    : 48.0 KHz
Stream size                      : 351 MiB (18%)
Language                         : English

Text #1
Language                         : English

Text #2
Language                         : Czech

Text #3
Language                         : Hungarian

Text #4
Language                         : Polish

Text #5
Language                         : Arabic

Text #6
Language                         : Bulgarian

Text #7
Language                         : Croatian

Text #8
Language                         : Danish

Text #9
Language                         : Estonian

Text #10
Language                         : Finnish

Text #11
Language                         : Greek

Text #12
Language                         : ?????????


Text #13
Language                         : Icelandic

Text #14

Language                         : Lithuanian

Text #15
Language                         : Norwegian

Text #16
Language                         : Romanian

Text #17
Language                         : Serbian

Text #18
Language                         : Slovenian

Text #19
Language                         : Swedish

Text #20
Language                         : Turkish

Text #21
Language                         : Czech
